# xmcd
#
# Track frame offsets:
#	150
#	14649
#	27964
#	43607
#	61642
#	77044
#	93255
#	110447
#	125279
#	140908
#	154780
#	171009
#
# Disc length: 2701 seconds
#
# Revision: 2
# Processed by: cddbd v1.5.2PL0 Copyright (c) Steve Scherf et al.
# Submitted via: audiograbber 1.83.01
#
DISCID=950a8b0c
DTITLE=Dierks Bentley - Home
DYEAR=2012
DGENRE=Country
TTITLE0=Am I The Only One
TTITLE1=Gonna Die Young
TTITLE2=Tip It On Back
TTITLE3=Home
TTITLE4=Diamonds Make Babies
TTITLE5=In My Head
TTITLE6=Breathe You
TTITLE7=The Woods
TTITLE8=When You Gonna Come Around (Feat. Karen Fairchild)
TTITLE9=5-1-5-0
TTITLE10=Heart Of A Lonely Girl
TTITLE11=Thinking Of You
EXTD=
EXTT0=
EXTT1=
EXTT2=
EXTT3=
EXTT4=
EXTT5=
EXTT6=
EXTT7=
EXTT8=
EXTT9=
EXTT10=
EXTT11=
PLAYORDER=
